#N canvas 532 39 1199 846 12;
#X obj 449 147 readsf~;
#X obj 449 197 dac~;
#X msg 396 89 1;
#X msg 350 99 0;
#X msg 467 91 open withU.wav;
#X msg 481 119 open ILoveU.wav;
#X obj 452 344 readsf~;
#X obj 452 394 dac~;
#X msg 399 286 1;
#X msg 353 296 0;
#X obj 450 275 openpanel;
#X msg 450 310 open \$1;
#X obj 450 246 bng 15 250 50 0 empty empty empty 17 7 0 10 -262144
-1 -1;
#X obj 73 76 soundfiler;
#X msg 72 42 read -resize withU.wav soundData;
#X floatatom 73 108 10 0 0 0 - - -;
#X obj 54 145 expr 44100/$f1;
#X obj 29 204 phasor~;
#X obj 177 195 *~;
#X obj 178 222 tabread4~ soundData;
#X obj 178 246 dac~;
#X msg 27 121 0;
#N canvas 0 50 450 250 (subpatch) 0;
#X array soundData 1.01806e+007 float 2;
#X coords 0 1 1.01806e+007 -1 200 140 1;
#X restore 24 273 graph;
#X obj 168 156 hsl 128 15 0 0.1 0 0 empty empty empty -2 -8 0 10 -262144
-1 -1 1500 1;
#X floatatom 213 177 5 0 0 0 - - -;
#X connect 0 0 1 0;
#X connect 0 0 1 1;
#X connect 2 0 0 0;
#X connect 3 0 0 0;
#X connect 4 0 0 0;
#X connect 5 0 0 0;
#X connect 6 0 7 0;
#X connect 6 0 7 1;
#X connect 8 0 6 0;
#X connect 9 0 6 0;
#X connect 10 0 11 0;
#X connect 11 0 6 0;
#X connect 12 0 10 0;
#X connect 13 0 15 0;
#X connect 14 0 13 0;
#X connect 15 0 16 0;
#X connect 15 0 18 1;
#X connect 16 0 17 0;
#X connect 17 0 18 0;
#X connect 18 0 19 0;
#X connect 19 0 20 0;
#X connect 19 0 20 1;
#X connect 21 0 17 0;
#X connect 23 0 17 0;
#X connect 23 0 24 0;
